<svg xmlns="http://www.w3.org/2000/svg" xmlns:xlink="http://www.w3.org/1999/xlink" width="500" zoomAndPan="magnify" viewBox="0 0 375 374.999991" height="500" preserveAspectRatio="xMidYMid meet" version="1.0"><defs><clipPath id="d1504fe55f"><path d="M 149 88.574219 L 339.765625 88.574219 L 339.765625 155 L 149 155 Z M 149 88.574219 " clip-rule="nonzero"/></clipPath><clipPath id="553ed16709"><path d="M 225 88.574219 L 302 88.574219 L 302 155 L 225 155 Z M 225 88.574219 " clip-rule="nonzero"/></clipPath><clipPath id="7280474788"><path d="M 225 88.574219 L 339.765625 88.574219 L 339.765625 221 L 225 221 Z M 225 88.574219 " clip-rule="nonzero"/></clipPath><clipPath id="2081e6cb3b"><path d="M 263 154 L 339.765625 154 L 339.765625 221 L 263 221 Z M 263 154 " clip-rule="nonzero"/></clipPath><clipPath id="04210c57c2"><path d="M 149 88.574219 L 226 88.574219 L 226 155 L 149 155 Z M 149 88.574219 " clip-rule="nonzero"/></clipPath><clipPath id="ea1f4a4eb4"><path d="M 35.265625 154 L 188 154 L 188 286.574219 L 35.265625 286.574219 Z M 35.265625 154 " clip-rule="nonzero"/></clipPath><clipPath id="a9b5663223"><path d="M 73 220 L 150 220 L 150 286.574219 L 73 286.574219 Z M 73 220 " clip-rule="nonzero"/></clipPath><clipPath id="b3275821a8"><path d="M 149 220 L 264 220 L 264 286.574219 L 149 286.574219 Z M 149 220 " clip-rule="nonzero"/></clipPath><clipPath id="2660c78ffe"><path d="M 187 220 L 264 220 L 264 286.574219 L 187 286.574219 Z M 187 220 " clip-rule="nonzero"/></clipPath><clipPath id="4f9397f586"><path d="M 35.265625 220 L 112 220 L 112 286.574219 L 35.265625 286.574219 Z M 35.265625 220 " clip-rule="nonzero"/></clipPath></defs><rect x="-37.5" width="450" fill="#ffffff" y="-37.499999" height="449.999989" fill-opacity="1"/><rect x="-37.5" width="450" fill="#ffffff" y="-37.499999" height="449.999989" fill-opacity="1"/><rect x="-37.5" width="450" fill="#f8f8f8" y="-37.499999" height="449.999989" fill-opacity="1"/><g clip-path="url(#d1504fe55f)"><path fill="#a8cf46" d="M 339.765625 154.585938 L 301.707031 88.621094 L 149.449219 88.621094 L 187.519531 154.585938 Z M 339.765625 154.585938 " fill-opacity="1" fill-rule="evenodd"/></g><g clip-path="url(#553ed16709)"><path fill="#359952" d="M 225.578125 88.621094 L 246.605469 125.074219 L 263.648438 154.585938 L 301.707031 88.621094 Z M 225.578125 88.621094 " fill-opacity="1" fill-rule="evenodd"/></g><g clip-path="url(#7280474788)"><path fill="#2b7674" d="M 301.707031 88.621094 L 263.648438 154.585938 L 225.578125 220.5625 L 301.707031 220.5625 L 339.765625 154.585938 Z M 301.707031 88.621094 " fill-opacity="1" fill-rule="evenodd"/></g><g clip-path="url(#2081e6cb3b)"><path fill="#39488f" d="M 339.765625 154.585938 L 263.648438 154.585938 L 301.707031 220.5625 Z M 339.765625 154.585938 " fill-opacity="1" fill-rule="evenodd"/></g><path fill="#4f4178" d="M 301.707031 220.5625 L 263.648438 154.585938 L 225.578125 220.5625 Z M 301.707031 220.5625 " fill-opacity="1" fill-rule="evenodd"/><g clip-path="url(#04210c57c2)"><path fill="#efe941" d="M 225.578125 88.621094 L 149.449219 88.621094 L 187.519531 154.585938 Z M 225.578125 88.621094 " fill-opacity="1" fill-rule="evenodd"/></g><g clip-path="url(#ea1f4a4eb4)"><path fill="#fec237" d="M 187.519531 154.585938 L 111.394531 154.585938 L 35.265625 286.527344 L 111.394531 286.527344 L 149.449219 220.5625 Z M 187.519531 154.585938 " fill-opacity="1" fill-rule="evenodd"/></g><g clip-path="url(#a9b5663223)"><path fill="#f18039" d="M 149.449219 220.5625 L 73.324219 220.5625 L 111.394531 286.527344 Z M 149.449219 220.5625 " fill-opacity="1" fill-rule="evenodd"/></g><path fill="#f9a139" d="M 73.324219 220.5625 L 149.449219 220.5625 L 111.394531 154.585938 Z M 73.324219 220.5625 " fill-opacity="1" fill-rule="evenodd"/><g clip-path="url(#b3275821a8)"><path fill="#9b3783" d="M 149.449219 220.5625 L 187.519531 286.527344 L 263.648438 286.527344 L 225.578125 220.5625 Z M 149.449219 220.5625 " fill-opacity="1" fill-rule="evenodd"/></g><g clip-path="url(#2660c78ffe)"><path fill="#643d92" d="M 206.542969 253.546875 L 187.519531 286.527344 L 263.648438 286.527344 L 225.578125 220.5625 Z M 206.542969 253.546875 " fill-opacity="1" fill-rule="evenodd"/></g><g clip-path="url(#4f9397f586)"><path fill="#ee6739" d="M 111.394531 286.527344 L 73.324219 220.5625 L 35.265625 286.527344 Z M 111.394531 286.527344 " fill-opacity="1" fill-rule="evenodd"/></g></svg>