<svg xmlns="http://www.w3.org/2000/svg" xmlns:xlink="http://www.w3.org/1999/xlink" width="500" zoomAndPan="magnify" viewBox="0 0 375 374.999991" height="500" preserveAspectRatio="xMidYMid meet" version="1.0"><defs><clipPath id="7999250415"><path d="M 91 0 L 298.785156 0 L 298.785156 363 L 91 363 Z M 91 0 " clip-rule="nonzero"/></clipPath><clipPath id="dae0210ed5"><path d="M 76.035156 338 L 108 338 L 108 367 L 76.035156 367 Z M 76.035156 338 " clip-rule="nonzero"/></clipPath></defs><rect x="-37.5" width="450" fill="#ffffff" y="-37.499999" height="449.999989" fill-opacity="1"/><rect x="-37.5" width="450" fill="#ffffff" y="-37.499999" height="449.999989" fill-opacity="1"/><rect x="-37.5" width="450" fill="#fdfbfb" y="-37.499999" height="449.999989" fill-opacity="1"/><path fill="#a32a59" d="M 212.789062 267.371094 C 212.789062 270.695312 213.558594 280.46875 223.269531 280.46875 C 234.601562 280.46875 234.886719 272.160156 235.085938 267.371094 Z M 212.789062 267.371094 " fill-opacity="1" fill-rule="nonzero"/><path fill="#a32a59" d="M 166.394531 373.984375 C 177.726562 373.984375 178.011719 365.671875 178.210938 360.886719 L 155.917969 360.886719 C 155.917969 364.210938 156.6875 373.984375 166.394531 373.984375 Z M 166.394531 373.984375 " fill-opacity="1" fill-rule="nonzero"/><g clip-path="url(#7999250415)"><path fill="#0b3b7b" d="M 298.21875 264.742188 L 224.507812 206.316406 C 224.574219 206.171875 224.613281 206.011719 224.613281 205.847656 C 224.402344 166.792969 222.5625 -58.339844 220.941406 -123.5 C 220.929688 -124.121094 220.417969 -124.613281 219.800781 -124.613281 C 219.792969 -124.613281 219.78125 -124.613281 219.773438 -124.613281 C 219.140625 -124.597656 218.644531 -124.070312 218.660156 -123.441406 C 220.277344 -58.484375 222.109375 165.515625 222.324219 205.503906 C 222.277344 205.53125 222.214844 205.519531 222.167969 205.554688 C 207.757812 216.519531 185.417969 234.921875 167.449219 250.09375 C 166.84375 150.324219 165.382812 -70.621094 164.066406 -123.496094 C 164.054688 -124.125 163.429688 -124.664062 162.898438 -124.609375 C 162.265625 -124.59375 161.769531 -124.070312 161.785156 -123.4375 C 163.109375 -70.238281 164.578125 153.191406 165.175781 252.019531 C 158.660156 257.535156 152.808594 262.558594 148.273438 266.511719 C 147.914062 266.824219 147.789062 267.328125 147.957031 267.773438 C 148.125 268.21875 148.550781 268.515625 149.027344 268.515625 C 154.457031 268.515625 159.863281 268.480469 165.277344 268.457031 C 165.378906 285.847656 165.441406 296.953125 165.453125 299.027344 C 165.402344 299.054688 165.34375 299.042969 165.292969 299.074219 C 144.882812 314.605469 108.648438 344.972656 91.402344 360.027344 C 91.042969 360.339844 90.917969 360.84375 91.082031 361.289062 C 91.25 361.734375 91.675781 362.03125 92.152344 362.03125 C 125.300781 362.03125 158.128906 361.511719 189.878906 361.011719 C 207.515625 360.730469 224.554688 360.460938 240.648438 360.300781 C 241.128906 360.296875 241.558594 359.984375 241.714844 359.527344 C 241.871094 359.070312 241.722656 358.5625 241.34375 358.261719 L 167.636719 299.835938 C 167.699219 299.691406 167.738281 299.53125 167.738281 299.363281 C 167.738281 298.746094 167.671875 287.261719 167.558594 268.445312 C 194.382812 268.300781 220.914062 267.898438 246.714844 267.492188 C 264.367188 267.210938 281.417969 266.941406 297.523438 266.78125 C 298.003906 266.773438 298.433594 266.464844 298.589844 266.007812 C 298.746094 265.550781 298.597656 265.042969 298.21875 264.742188 Z M 189.839844 358.722656 C 159.078125 359.210938 127.300781 359.714844 95.210938 359.742188 C 112.96875 344.339844 146.367188 316.410156 165.972656 301.429688 L 237.394531 358.046875 C 222.257812 358.210938 206.308594 358.464844 189.839844 358.722656 Z M 152.082031 266.226562 C 155.839844 262.972656 160.320312 259.132812 165.195312 255 C 165.222656 258.945312 165.242188 262.675781 165.261719 266.171875 C 160.871094 266.191406 156.488281 266.222656 152.082031 266.226562 Z M 246.679688 265.207031 C 220.882812 265.617188 194.355469 266.015625 167.550781 266.160156 C 167.523438 262.097656 167.5 257.734375 167.472656 253.070312 C 185.355469 237.945312 208.054688 219.214844 222.847656 207.910156 L 294.273438 264.527344 C 279.121094 264.691406 263.160156 264.945312 246.679688 265.207031 Z M 246.679688 265.207031 " fill-opacity="1" fill-rule="nonzero"/></g><path fill="#0b3b7b" d="M 198.71875 216.746094 C 198.925781 216.746094 199.132812 216.679688 199.304688 216.542969 L 215.285156 204.292969 C 215.710938 203.96875 215.785156 203.363281 215.464844 202.9375 C 215.140625 202.511719 214.53125 202.425781 214.109375 202.757812 L 198.132812 215.007812 C 197.707031 215.335938 197.628906 215.941406 197.949219 216.363281 C 198.140625 216.613281 198.429688 216.746094 198.71875 216.746094 Z M 198.71875 216.746094 " fill-opacity="1" fill-rule="nonzero"/><g clip-path="url(#dae0210ed5)"><path fill="#0b3b7b" d="M 102.851562 364.707031 C 102.851562 364.707031 102.847656 364.707031 102.847656 364.707031 L 79.5625 364.867188 L 107.027344 340.425781 C 107.425781 340.070312 107.460938 339.460938 107.105469 339.058594 C 106.75 338.65625 106.140625 338.625 105.742188 338.980469 L 76.359375 365.128906 C 76.0625 365.394531 75.957031 365.820312 76.101562 366.195312 C 76.246094 366.570312 76.605469 366.816406 77.003906 366.816406 C 77.007812 366.816406 77.007812 366.816406 77.011719 366.816406 L 102.863281 366.640625 C 103.394531 366.636719 103.824219 366.203125 103.820312 365.664062 C 103.816406 365.132812 103.382812 364.707031 102.851562 364.707031 Z M 102.851562 364.707031 " fill-opacity="1" fill-rule="nonzero"/></g></svg>