<svg xmlns="http://www.w3.org/2000/svg" xmlns:xlink="http://www.w3.org/1999/xlink" width="500" zoomAndPan="magnify" viewBox="0 0 375 374.999991" height="500" preserveAspectRatio="xMidYMid meet" version="1.0"><defs><g/><clipPath id="c0fb2ccca3"><path d="M 63 239 L 70 239 L 70 243.699219 L 63 243.699219 Z M 63 239 " clip-rule="nonzero"/></clipPath><clipPath id="1ca7469cf2"><path d="M 43 131.300781 L 106.078125 131.300781 L 106.078125 240 L 43 240 Z M 43 131.300781 " clip-rule="nonzero"/></clipPath><clipPath id="f893a2864e"><path d="M 39.328125 232 L 49 232 L 49 242 L 39.328125 242 Z M 39.328125 232 " clip-rule="nonzero"/></clipPath></defs><path fill="#a32a59" d="M 80.308594 211.480469 C 80.308594 212.476562 80.539062 215.40625 83.449219 215.40625 C 86.84375 215.40625 86.929688 212.917969 86.988281 211.480469 Z M 80.308594 211.480469 " fill-opacity="1" fill-rule="nonzero"/><g clip-path="url(#c0fb2ccca3)"><path fill="#a32a59" d="M 66.40625 243.445312 C 69.800781 243.445312 69.886719 240.953125 69.945312 239.519531 L 63.265625 239.519531 C 63.265625 240.515625 63.496094 243.445312 66.40625 243.445312 Z M 66.40625 243.445312 " fill-opacity="1" fill-rule="nonzero"/></g><g clip-path="url(#1ca7469cf2)"><path fill="#0b3b7b" d="M 105.910156 210.691406 L 83.820312 193.175781 C 83.839844 193.132812 83.851562 193.085938 83.851562 193.035156 C 83.789062 181.328125 83.238281 113.832031 82.75 94.292969 C 82.746094 94.109375 82.59375 93.960938 82.410156 93.960938 C 82.40625 93.960938 82.402344 93.960938 82.398438 93.960938 C 82.210938 93.964844 82.0625 94.125 82.066406 94.3125 C 82.550781 113.789062 83.101562 180.945312 83.164062 192.933594 C 83.152344 192.941406 83.132812 192.9375 83.117188 192.949219 C 78.800781 196.234375 72.105469 201.753906 66.722656 206.300781 C 66.539062 176.390625 66.101562 110.148438 65.707031 94.296875 C 65.703125 94.105469 65.515625 93.945312 65.355469 93.960938 C 65.167969 93.964844 65.019531 94.125 65.023438 94.3125 C 65.421875 110.261719 65.859375 177.25 66.039062 206.878906 C 64.085938 208.53125 62.332031 210.039062 60.976562 211.222656 C 60.867188 211.316406 60.828125 211.46875 60.878906 211.601562 C 60.929688 211.734375 61.058594 211.824219 61.199219 211.824219 C 62.828125 211.824219 64.449219 211.8125 66.070312 211.808594 C 66.101562 217.019531 66.117188 220.351562 66.121094 220.972656 C 66.105469 220.980469 66.089844 220.976562 66.074219 220.988281 C 59.960938 225.640625 49.101562 234.746094 43.933594 239.261719 C 43.824219 239.355469 43.785156 239.503906 43.835938 239.640625 C 43.886719 239.773438 44.015625 239.859375 44.15625 239.859375 C 54.089844 239.859375 63.929688 239.707031 73.441406 239.554688 C 78.726562 239.472656 83.832031 239.390625 88.65625 239.34375 C 88.800781 239.339844 88.929688 239.246094 88.976562 239.109375 C 89.023438 238.972656 88.976562 238.820312 88.863281 238.730469 L 66.777344 221.214844 C 66.796875 221.171875 66.808594 221.125 66.808594 221.074219 C 66.808594 220.886719 66.789062 217.445312 66.753906 211.804688 C 74.792969 211.761719 82.742188 211.640625 90.472656 211.515625 C 95.761719 211.433594 100.875 211.351562 105.699219 211.304688 C 105.84375 211.300781 105.972656 211.210938 106.019531 211.074219 C 106.066406 210.9375 106.023438 210.785156 105.910156 210.691406 Z M 73.429688 238.871094 C 64.210938 239.015625 54.691406 239.167969 45.074219 239.175781 C 50.394531 234.558594 60.402344 226.183594 66.277344 221.691406 L 87.679688 238.667969 C 83.144531 238.714844 78.367188 238.792969 73.429688 238.871094 Z M 62.117188 211.136719 C 63.242188 210.160156 64.585938 209.011719 66.046875 207.773438 C 66.054688 208.957031 66.058594 210.074219 66.066406 211.121094 C 64.75 211.128906 63.4375 211.136719 62.117188 211.136719 Z M 90.464844 210.832031 C 82.734375 210.953125 74.785156 211.074219 66.75 211.117188 C 66.742188 209.898438 66.734375 208.589844 66.726562 207.195312 C 72.085938 202.660156 78.890625 197.042969 83.320312 193.65625 L 104.726562 210.628906 C 100.183594 210.679688 95.402344 210.753906 90.464844 210.832031 Z M 90.464844 210.832031 " fill-opacity="1" fill-rule="nonzero"/></g><path fill="#0b3b7b" d="M 76.089844 196.304688 C 76.152344 196.304688 76.214844 196.285156 76.265625 196.242188 L 81.054688 192.570312 C 81.183594 192.472656 81.207031 192.289062 81.109375 192.164062 C 81.011719 192.035156 80.828125 192.011719 80.703125 192.109375 L 75.914062 195.78125 C 75.789062 195.878906 75.765625 196.0625 75.859375 196.1875 C 75.917969 196.265625 76.003906 196.304688 76.089844 196.304688 Z M 76.089844 196.304688 " fill-opacity="1" fill-rule="nonzero"/><g clip-path="url(#f893a2864e)"><path fill="#0b3b7b" d="M 47.363281 240.664062 L 40.386719 240.710938 L 48.613281 233.382812 C 48.734375 233.277344 48.746094 233.09375 48.636719 232.972656 C 48.53125 232.851562 48.347656 232.84375 48.230469 232.949219 L 39.425781 240.789062 C 39.335938 240.867188 39.304688 240.996094 39.347656 241.109375 C 39.390625 241.222656 39.496094 241.296875 39.617188 241.296875 C 39.617188 241.296875 39.621094 241.296875 39.621094 241.296875 L 47.367188 241.242188 C 47.527344 241.242188 47.65625 241.113281 47.652344 240.949219 C 47.652344 240.792969 47.523438 240.664062 47.363281 240.664062 Z M 47.363281 240.664062 " fill-opacity="1" fill-rule="nonzero"/></g><g fill="#0b3b7b" fill-opacity="1"><g transform="translate(115.679829, 161.565376)"><g><path d="M 7.375 -1.25 L 18.859375 -1.25 L 13.828125 -15.078125 L 16.15625 -16.40625 C 18.070312 -17.457031 19.03125 -19.132812 19.03125 -21.4375 C 19.03125 -25.75 15.753906 -27.90625 9.203125 -27.90625 L 5.375 -27.90625 L 5.375 0 L 4.125 0 L 4.125 -29.140625 L 9.203125 -29.140625 C 12.867188 -29.140625 15.628906 -28.46875 17.484375 -27.125 C 19.347656 -25.78125 20.28125 -23.882812 20.28125 -21.4375 C 20.28125 -18.664062 19.113281 -16.628906 16.78125 -15.328125 L 15.359375 -14.53125 L 20.65625 0 L 7.375 0 Z M 7.375 -1.25 "/></g></g></g><g fill="#0b3b7b" fill-opacity="1"><g transform="translate(149.330017, 161.565376)"><g><path d="M 20.3125 -2.71875 C 18.789062 -0.625 16.320312 0.421875 12.90625 0.421875 C 9.488281 0.421875 7.015625 -0.625 5.484375 -2.71875 C 3.960938 -4.820312 3.203125 -8.09375 3.203125 -12.53125 L 3.203125 -16.609375 C 3.203125 -21.054688 3.960938 -24.328125 5.484375 -26.421875 C 7.015625 -28.515625 9.488281 -29.5625 12.90625 -29.5625 C 16.320312 -29.5625 18.789062 -28.515625 20.3125 -26.421875 C 21.84375 -24.328125 22.609375 -21.054688 22.609375 -16.609375 L 22.609375 -12.53125 C 22.609375 -8.09375 21.84375 -4.820312 20.3125 -2.71875 Z M 16.40625 -27.796875 C 15.4375 -28.140625 14.269531 -28.3125 12.90625 -28.3125 C 11.550781 -28.3125 10.382812 -28.140625 9.40625 -27.796875 C 8.4375 -27.453125 7.5625 -26.863281 6.78125 -26.03125 C 6.007812 -25.195312 5.425781 -23.992188 5.03125 -22.421875 C 4.644531 -20.859375 4.453125 -18.921875 4.453125 -16.609375 L 4.453125 -12.53125 C 4.453125 -10.226562 4.644531 -8.289062 5.03125 -6.71875 C 5.425781 -5.15625 6.007812 -3.957031 6.78125 -3.125 C 7.5625 -2.289062 8.4375 -1.695312 9.40625 -1.34375 C 10.382812 -1 11.550781 -0.828125 12.90625 -0.828125 C 14.269531 -0.828125 15.4375 -1 16.40625 -1.34375 C 17.375 -1.695312 18.25 -2.289062 19.03125 -3.125 C 19.8125 -3.957031 20.394531 -5.15625 20.78125 -6.71875 C 21.164062 -8.289062 21.359375 -10.226562 21.359375 -12.53125 L 21.359375 -16.609375 C 21.359375 -18.921875 21.164062 -20.859375 20.78125 -22.421875 C 20.394531 -23.992188 19.8125 -25.195312 19.03125 -26.03125 C 18.25 -26.863281 17.375 -27.453125 16.40625 -27.796875 Z M 16.40625 -27.796875 "/></g></g></g><g fill="#0b3b7b" fill-opacity="1"><g transform="translate(185.895453, 161.565376)"><g><path d="M 20.3125 -2.71875 C 18.789062 -0.625 16.320312 0.421875 12.90625 0.421875 C 9.488281 0.421875 7.015625 -0.625 5.484375 -2.71875 C 3.960938 -4.820312 3.203125 -8.09375 3.203125 -12.53125 L 3.203125 -16.609375 C 3.203125 -21.054688 3.960938 -24.328125 5.484375 -26.421875 C 7.015625 -28.515625 9.488281 -29.5625 12.90625 -29.5625 C 16.320312 -29.5625 18.789062 -28.515625 20.3125 -26.421875 C 21.84375 -24.328125 22.609375 -21.054688 22.609375 -16.609375 L 22.609375 -12.53125 C 22.609375 -8.09375 21.84375 -4.820312 20.3125 -2.71875 Z M 16.40625 -27.796875 C 15.4375 -28.140625 14.269531 -28.3125 12.90625 -28.3125 C 11.550781 -28.3125 10.382812 -28.140625 9.40625 -27.796875 C 8.4375 -27.453125 7.5625 -26.863281 6.78125 -26.03125 C 6.007812 -25.195312 5.425781 -23.992188 5.03125 -22.421875 C 4.644531 -20.859375 4.453125 -18.921875 4.453125 -16.609375 L 4.453125 -12.53125 C 4.453125 -10.226562 4.644531 -8.289062 5.03125 -6.71875 C 5.425781 -5.15625 6.007812 -3.957031 6.78125 -3.125 C 7.5625 -2.289062 8.4375 -1.695312 9.40625 -1.34375 C 10.382812 -1 11.550781 -0.828125 12.90625 -0.828125 C 14.269531 -0.828125 15.4375 -1 16.40625 -1.34375 C 17.375 -1.695312 18.25 -2.289062 19.03125 -3.125 C 19.8125 -3.957031 20.394531 -5.15625 20.78125 -6.71875 C 21.164062 -8.289062 21.359375 -10.226562 21.359375 -12.53125 L 21.359375 -16.609375 C 21.359375 -18.921875 21.164062 -20.859375 20.78125 -22.421875 C 20.394531 -23.992188 19.8125 -25.195312 19.03125 -26.03125 C 18.25 -26.863281 17.375 -27.453125 16.40625 -27.796875 Z M 16.40625 -27.796875 "/></g></g></g><g fill="#0b3b7b" fill-opacity="1"><g transform="translate(222.46089, 161.565376)"><g><path d="M 7.703125 -1.25 L 24.109375 -1.25 L 24.109375 -26.1875 L 14.734375 -6.125 L 5.375 -26.234375 L 5.375 0 L 4.125 -0.046875 L 4.125 -29.1875 L 5.375 -29.1875 L 14.734375 -9.078125 L 24.109375 -29.140625 L 25.359375 -29.1875 L 25.359375 0 L 7.703125 -0.046875 Z M 7.703125 -1.25 "/></g></g></g><g fill="#0b3b7b" fill-opacity="1"><g transform="translate(168.42876, 193.833297)"><g><path d="M 7.640625 -12.546875 L 7.640625 -12.21875 L 1.875 -12.21875 L 1.875 -6.4375 L 7.109375 -6.4375 L 7.109375 -6.109375 L 1.875 -6.109375 L 1.875 0 L 1.515625 0 L 1.515625 -12.546875 Z M 7.640625 -12.546875 "/></g></g></g><g fill="#0b3b7b" fill-opacity="1"><g transform="translate(181.382279, 193.833297)"><g><path d="M 7.046875 0.140625 C 5.898438 0.140625 4.867188 -0.128906 3.953125 -0.671875 C 3.046875 -1.210938 2.335938 -1.96875 1.828125 -2.9375 C 1.316406 -3.914062 1.0625 -5.019531 1.0625 -6.25 C 1.0625 -7.488281 1.316406 -8.59375 1.828125 -9.5625 C 2.335938 -10.539062 3.046875 -11.296875 3.953125 -11.828125 C 4.867188 -12.367188 5.898438 -12.640625 7.046875 -12.640625 C 8.203125 -12.640625 9.234375 -12.367188 10.140625 -11.828125 C 11.046875 -11.296875 11.753906 -10.539062 12.265625 -9.5625 C 12.773438 -8.59375 13.03125 -7.488281 13.03125 -6.25 C 13.03125 -5.019531 12.773438 -3.914062 12.265625 -2.9375 C 11.753906 -1.96875 11.046875 -1.210938 10.140625 -0.671875 C 9.234375 -0.128906 8.203125 0.140625 7.046875 0.140625 Z M 7.046875 -0.171875 C 8.097656 -0.171875 9.050781 -0.414062 9.90625 -0.90625 C 10.757812 -1.40625 11.429688 -2.113281 11.921875 -3.03125 C 12.421875 -3.957031 12.671875 -5.03125 12.671875 -6.25 C 12.671875 -7.476562 12.421875 -8.550781 11.921875 -9.46875 C 11.429688 -10.382812 10.757812 -11.085938 9.90625 -11.578125 C 9.050781 -12.078125 8.097656 -12.328125 7.046875 -12.328125 C 6.003906 -12.328125 5.054688 -12.078125 4.203125 -11.578125 C 3.347656 -11.085938 2.671875 -10.382812 2.171875 -9.46875 C 1.679688 -8.550781 1.4375 -7.476562 1.4375 -6.25 C 1.4375 -5.03125 1.679688 -3.957031 2.171875 -3.03125 C 2.671875 -2.113281 3.347656 -1.40625 4.203125 -0.90625 C 5.054688 -0.414062 6.003906 -0.171875 7.046875 -0.171875 Z M 7.046875 -0.171875 "/></g></g></g><g fill="#0b3b7b" fill-opacity="1"><g transform="translate(200.089258, 193.833297)"><g><path d="M 8.375 0 L 5.015625 -5.46875 L 1.875 -5.46875 L 1.875 0 L 1.515625 0 L 1.515625 -12.546875 L 4.65625 -12.546875 C 6.03125 -12.546875 7.050781 -12.226562 7.71875 -11.59375 C 8.394531 -10.96875 8.734375 -10.109375 8.734375 -9.015625 C 8.734375 -8.003906 8.445312 -7.195312 7.875 -6.59375 C 7.300781 -5.988281 6.488281 -5.625 5.4375 -5.5 L 8.8125 0 Z M 4.6875 -5.8125 C 5.90625 -5.8125 6.820312 -6.097656 7.4375 -6.671875 C 8.050781 -7.253906 8.359375 -8.035156 8.359375 -9.015625 C 8.359375 -11.128906 7.125 -12.1875 4.65625 -12.1875 L 1.875 -12.1875 L 1.875 -5.8125 Z M 4.6875 -5.8125 "/></g></g></g><g fill="#0b3b7b" fill-opacity="1"><g transform="translate(115.679829, 241.465741)"><g><path d="M 22.1875 -5.328125 C 21.4375 -3.492188 20.378906 -2.078125 19.015625 -1.078125 C 17.660156 -0.078125 15.625 0.421875 12.90625 0.421875 C 9.488281 0.421875 7.015625 -0.625 5.484375 -2.71875 C 3.960938 -4.820312 3.203125 -8.09375 3.203125 -12.53125 L 3.203125 -16.609375 C 3.203125 -21.054688 3.960938 -24.328125 5.484375 -26.421875 C 7.015625 -28.515625 9.488281 -29.5625 12.90625 -29.5625 C 15.625 -29.5625 17.660156 -29.0625 19.015625 -28.0625 C 20.378906 -27.0625 21.4375 -25.644531 22.1875 -23.8125 L 21.0625 -23.28125 C 20.425781 -24.882812 19.523438 -26.125 18.359375 -27 C 17.191406 -27.875 15.375 -28.3125 12.90625 -28.3125 C 11.550781 -28.3125 10.382812 -28.140625 9.40625 -27.796875 C 8.4375 -27.453125 7.5625 -26.863281 6.78125 -26.03125 C 6.007812 -25.195312 5.425781 -23.992188 5.03125 -22.421875 C 4.644531 -20.859375 4.453125 -18.921875 4.453125 -16.609375 L 4.453125 -12.53125 C 4.453125 -10.226562 4.644531 -8.289062 5.03125 -6.71875 C 5.425781 -5.15625 6.007812 -3.957031 6.78125 -3.125 C 7.5625 -2.289062 8.4375 -1.695312 9.40625 -1.34375 C 10.382812 -1 11.550781 -0.828125 12.90625 -0.828125 C 15.375 -0.828125 17.191406 -1.265625 18.359375 -2.140625 C 19.523438 -3.015625 20.425781 -4.257812 21.0625 -5.875 Z M 22.1875 -5.328125 "/></g></g></g><g fill="#0b3b7b" fill-opacity="1"><g transform="translate(150.870937, 241.465741)"><g><path d="M 5.375 0 L 4.125 0 L 4.125 -29.140625 L 5.375 -29.140625 Z M 5.375 0 "/></g></g></g><g fill="#0b3b7b" fill-opacity="1"><g transform="translate(171.111029, 241.465741)"><g><path d="M 19.078125 -15.234375 L 6.703125 -15.234375 L 19.453125 -27.90625 L 5.375 -27.90625 L 5.375 -1.25 L 21.53125 -1.25 L 21.53125 0 L 4.125 0 L 4.125 -29.140625 L 22.484375 -29.140625 L 9.75 -16.484375 L 19.078125 -16.484375 Z M 19.078125 -15.234375 "/></g></g></g><g fill="#0b3b7b" fill-opacity="1"><g transform="translate(205.844023, 241.465741)"><g><path d="M 21.53125 -1.25 L 21.53125 0 L 4.125 0 L 4.125 -29.140625 L 5.375 -29.140625 L 5.375 -1.25 Z M 21.53125 -1.25 "/></g></g></g><g fill="#0b3b7b" fill-opacity="1"><g transform="translate(238.744586, 241.465741)"><g><path d="M 20.3125 -2.71875 C 18.789062 -0.625 16.320312 0.421875 12.90625 0.421875 C 9.488281 0.421875 7.015625 -0.625 5.484375 -2.71875 C 3.960938 -4.820312 3.203125 -8.09375 3.203125 -12.53125 L 3.203125 -16.609375 C 3.203125 -21.054688 3.960938 -24.328125 5.484375 -26.421875 C 7.015625 -28.515625 9.488281 -29.5625 12.90625 -29.5625 C 16.320312 -29.5625 18.789062 -28.515625 20.3125 -26.421875 C 21.84375 -24.328125 22.609375 -21.054688 22.609375 -16.609375 L 22.609375 -12.53125 C 22.609375 -8.09375 21.84375 -4.820312 20.3125 -2.71875 Z M 16.40625 -27.796875 C 15.4375 -28.140625 14.269531 -28.3125 12.90625 -28.3125 C 11.550781 -28.3125 10.382812 -28.140625 9.40625 -27.796875 C 8.4375 -27.453125 7.5625 -26.863281 6.78125 -26.03125 C 6.007812 -25.195312 5.425781 -23.992188 5.03125 -22.421875 C 4.644531 -20.859375 4.453125 -18.921875 4.453125 -16.609375 L 4.453125 -12.53125 C 4.453125 -10.226562 4.644531 -8.289062 5.03125 -6.71875 C 5.425781 -5.15625 6.007812 -3.957031 6.78125 -3.125 C 7.5625 -2.289062 8.4375 -1.695312 9.40625 -1.34375 C 10.382812 -1 11.550781 -0.828125 12.90625 -0.828125 C 14.269531 -0.828125 15.4375 -1 16.40625 -1.34375 C 17.375 -1.695312 18.25 -2.289062 19.03125 -3.125 C 19.8125 -3.957031 20.394531 -5.15625 20.78125 -6.71875 C 21.164062 -8.289062 21.359375 -10.226562 21.359375 -12.53125 L 21.359375 -16.609375 C 21.359375 -18.921875 21.164062 -20.859375 20.78125 -22.421875 C 20.394531 -23.992188 19.8125 -25.195312 19.03125 -26.03125 C 18.25 -26.863281 17.375 -27.453125 16.40625 -27.796875 Z M 16.40625 -27.796875 "/></g></g></g></svg>